#define logo_width  32
#define logo_height 32
static unsigned char logo_bits[] = {
 0x00,0x00,0x00,0x00,0x00,0x00,0x00,0x00,0x00,0x00,0x00,0x00,
 0x00,0x00,0x00,0x00,0x00,0x00,0x18,0x00,0x00,0xe0,0x3c,0x00,
 0x00,0xf0,0x7f,0x00,0x00,0xf8,0xff,0x00,0x00,0xfc,0xff,0x01,
 0x00,0x1e,0xc0,0x03,0x00,0x0f,0x80,0x03,0x80,0x07,0x00,0x07,
 0x80,0x03,0x00,0x07,0x80,0x23,0x00,0x06,0x80,0xf1,0x00,0x04,
 0xc0,0x71,0x00,0x0c,0x60,0x01,0x00,0x08,0x70,0x02,0x00,0x08,
 0x30,0x02,0x00,0x08,0x10,0x02,0x00,0x08,0x10,0x02,0x00,0x08,
 0x70,0x03,0x00,0x08,0xe0,0x03,0x00,0x08,0x00,0x03,0x00,0x08,
 0x00,0x03,0x00,0x08,0x80,0x01,0x00,0x0c,0xc0,0xc3,0x30,0x0c,
 0xc0,0xe7,0x79,0x06,0x80,0x3d,0xcf,0x03,0x00,0x18,0x86,0x01,
 0x00,0x00,0x00,0x00,0x00,0x00,0x00,0x00};
